<svg width="90" height="29" viewBox="0 0 90 29" fill="none" xmlns="http://www.w3.org/2000/svg">
<line x1="1" y1="24.9572" x2="89" y2="24.9572" stroke="#495057"/>
<path d="M40.064 13.7C39.8 13.7 39.556 13.636 39.332 13.508C39.116 13.372 38.94 13.196 38.804 12.98C38.676 12.756 38.612 12.512 38.612 12.248V8.19201C38.612 7.92801 38.676 7.68801 38.804 7.47201C38.94 7.24801 39.116 7.07201 39.332 6.94401C39.556 6.80801 39.8 6.74001 40.064 6.74001H44.24C44.512 6.74001 44.756 6.80801 44.972 6.94401C45.196 7.07201 45.372 7.24801 45.5 7.47201C45.636 7.68801 45.704 7.92801 45.704 8.19201V10.712H39.596V12.248C39.596 12.376 39.64 12.488 39.728 12.584C39.824 12.672 39.936 12.716 40.064 12.716H45.704V13.7H40.064ZM39.596 9.72801H44.708V8.19201C44.708 8.06401 44.66 7.95601 44.564 7.86801C44.476 7.77201 44.368 7.72401 44.24 7.72401H40.064C39.936 7.72401 39.824 7.77201 39.728 7.86801C39.64 7.95601 39.596 8.06401 39.596 8.19201V9.72801ZM48.1502 13.7C47.8862 13.7 47.6422 13.636 47.4182 13.508C47.2022 13.372 47.0262 13.196 46.8902 12.98C46.7622 12.756 46.6982 12.512 46.6982 12.248V4.46001H47.6822V12.248C47.6822 12.376 47.7262 12.488 47.8142 12.584C47.9102 12.672 48.0222 12.716 48.1502 12.716H49.3262V13.7H48.1502ZM52.0662 13.7L49.3302 6.74001H50.3862L52.4982 11.924L54.7422 6.74001H56.0382L58.4262 11.912L60.3942 6.74001H61.4622L58.8342 13.7H57.9822L55.3902 7.95201L52.9302 13.7H52.0662ZM63.4429 13.7C63.1789 13.7 62.9349 13.636 62.7109 13.508C62.4949 13.372 62.3189 13.196 62.1829 12.98C62.0549 12.756 61.9909 12.512 61.9909 12.248V8.19201C61.9909 7.92801 62.0549 7.68801 62.1829 7.47201C62.3189 7.24801 62.4949 7.07201 62.7109 6.94401C62.9349 6.80801 63.1789 6.74001 63.4429 6.74001H67.6189C67.8909 6.74001 68.1349 6.80801 68.3509 6.94401C68.5749 7.07201 68.7509 7.24801 68.8789 7.47201C69.0149 7.68801 69.0829 7.92801 69.0829 8.19201V10.712H62.9749V12.248C62.9749 12.376 63.0189 12.488 63.1069 12.584C63.2029 12.672 63.3149 12.716 63.4429 12.716H69.0829V13.7H63.4429ZM62.9749 9.72801H68.0869V8.19201C68.0869 8.06401 68.0389 7.95601 67.9429 7.86801C67.8549 7.77201 67.7469 7.72401 67.6189 7.72401H63.4429C63.3149 7.72401 63.2029 7.77201 63.1069 7.86801C63.0189 7.95601 62.9749 8.06401 62.9749 8.19201V9.72801ZM70.2529 13.7V8.19201C70.2529 7.92801 70.3169 7.68801 70.4449 7.47201C70.5809 7.24801 70.7569 7.07201 70.9729 6.94401C71.1969 6.80801 71.4409 6.74001 71.7049 6.74001H75.6169V7.72401H71.7049C71.5769 7.72401 71.4649 7.77201 71.3689 7.86801C71.2809 7.95601 71.2369 8.06401 71.2369 8.19201V13.7H70.2529Z" fill="#4C6EF5"/>
<path d="M39.064 22.9714C38.8 22.9714 38.556 22.9074 38.332 22.7794C38.116 22.6434 37.94 22.4674 37.804 22.2514C37.676 22.0274 37.612 21.7834 37.612 21.5194V17.4634C37.612 17.1994 37.676 16.9594 37.804 16.7434C37.94 16.5194 38.116 16.3434 38.332 16.2154C38.556 16.0794 38.8 16.0114 39.064 16.0114H43.24C43.512 16.0114 43.756 16.0794 43.972 16.2154C44.196 16.3434 44.372 16.5194 44.5 16.7434C44.636 16.9594 44.704 17.1994 44.704 17.4634V21.5194C44.704 21.7834 44.636 22.0274 44.5 22.2514C44.372 22.4674 44.196 22.6434 43.972 22.7794C43.756 22.9074 43.512 22.9714 43.24 22.9714H39.064ZM39.064 21.9874H43.24C43.368 21.9874 43.476 21.9434 43.564 21.8554C43.66 21.7594 43.708 21.6474 43.708 21.5194V17.4634C43.708 17.3354 43.66 17.2274 43.564 17.1394C43.476 17.0434 43.368 16.9954 43.24 16.9954H39.064C38.936 16.9954 38.824 17.0434 38.728 17.1394C38.64 17.2274 38.596 17.3354 38.596 17.4634V21.5194C38.596 21.6474 38.64 21.7594 38.728 21.8554C38.824 21.9434 38.936 21.9874 39.064 21.9874ZM47.1502 22.9714C46.8862 22.9714 46.6422 22.9074 46.4182 22.7794C46.2022 22.6434 46.0262 22.4674 45.8902 22.2514C45.7622 22.0274 45.6982 21.7834 45.6982 21.5194V13.7314H46.6822V21.5194C46.6822 21.6474 46.7262 21.7594 46.8142 21.8554C46.9102 21.9434 47.0222 21.9874 47.1502 21.9874H48.3262V22.9714H47.1502ZM50.7833 22.9714C50.5193 22.9714 50.2753 22.9074 50.0513 22.7794C49.8353 22.6434 49.6593 22.4674 49.5233 22.2514C49.3953 22.0274 49.3313 21.7834 49.3313 21.5194V16.0114H50.3153V21.5194C50.3153 21.6474 50.3593 21.7594 50.4473 21.8554C50.5433 21.9434 50.6553 21.9874 50.7833 21.9874H54.9593C55.0873 21.9874 55.1993 21.9434 55.2953 21.8554C55.3913 21.7594 55.4393 21.6474 55.4393 21.5194V16.0114H56.4233V21.5194C56.4233 21.7834 56.3553 22.0274 56.2193 22.2514C56.0913 22.4674 55.9153 22.6434 55.6913 22.7794C55.4753 22.9074 55.2313 22.9714 54.9593 22.9714H50.7833ZM58.9513 22.9714C58.6793 22.9714 58.4313 22.9074 58.2073 22.7794C57.9913 22.6434 57.8193 22.4674 57.6913 22.2514C57.5633 22.0274 57.4993 21.7834 57.4993 21.5194V13.7314H58.4833V16.0114H61.4953V16.9954H58.4833V21.5194C58.4833 21.6474 58.5273 21.7594 58.6153 21.8554C58.7113 21.9434 58.8233 21.9874 58.9513 21.9874H61.4953V22.9714H58.9513ZM62.4678 22.9714V16.0114H63.4518V22.9714H62.4678ZM62.4678 14.7154V13.7314H63.4518V14.7154H62.4678ZM66.4038 22.9714C66.1398 22.9714 65.8958 22.9074 65.6718 22.7794C65.4558 22.6434 65.2798 22.4674 65.1438 22.2514C65.0158 22.0274 64.9518 21.7834 64.9518 21.5194V17.4634C64.9518 17.1994 65.0158 16.9594 65.1438 16.7434C65.2798 16.5194 65.4558 16.3434 65.6718 16.2154C65.8958 16.0794 66.1398 16.0114 66.4038 16.0114H70.5798C70.8518 16.0114 71.0958 16.0794 71.3118 16.2154C71.5358 16.3434 71.7118 16.5194 71.8398 16.7434C71.9758 16.9594 72.0438 17.1994 72.0438 17.4634V21.5194C72.0438 21.7834 71.9758 22.0274 71.8398 22.2514C71.7118 22.4674 71.5358 22.6434 71.3118 22.7794C71.0958 22.9074 70.8518 22.9714 70.5798 22.9714H66.4038ZM66.4038 21.9874H70.5798C70.7078 21.9874 70.8158 21.9434 70.9038 21.8554C70.9998 21.7594 71.0478 21.6474 71.0478 21.5194V17.4634C71.0478 17.3354 70.9998 17.2274 70.9038 17.1394C70.8158 17.0434 70.7078 16.9954 70.5798 16.9954H66.4038C66.2758 16.9954 66.1638 17.0434 66.0678 17.1394C65.9798 17.2274 65.9358 17.3354 65.9358 17.4634V21.5194C65.9358 21.6474 65.9798 21.7594 66.0678 21.8554C66.1638 21.9434 66.2758 21.9874 66.4038 21.9874ZM73.1207 22.9714V16.0114H78.7607C79.0247 16.0114 79.2647 16.0794 79.4807 16.2154C79.7047 16.3434 79.8807 16.5194 80.0087 16.7434C80.1447 16.9594 80.2127 17.1994 80.2127 17.4634V22.9714H79.2287V17.4634C79.2287 17.3354 79.1807 17.2274 79.0847 17.1394C78.9967 17.0434 78.8887 16.9954 78.7607 16.9954H74.5847C74.4567 16.9954 74.3447 17.0434 74.2487 17.1394C74.1527 17.2274 74.1047 17.3354 74.1047 17.4634V22.9714H73.1207ZM82.8561 22.9714C82.5921 22.9714 82.3481 22.9074 82.1241 22.7794C81.9081 22.6434 81.7321 22.4674 81.5961 22.2514C81.4681 22.0274 81.4041 21.7834 81.4041 21.5194V21.4234H82.3881V21.5194C82.3881 21.6474 82.4321 21.7594 82.5201 21.8554C82.6161 21.9434 82.7281 21.9874 82.8561 21.9874H87.0321C87.1601 21.9874 87.2681 21.9434 87.3561 21.8554C87.4521 21.7594 87.5001 21.6474 87.5001 21.5194V20.4514C87.5001 20.3234 87.4521 20.2154 87.3561 20.1274C87.2681 20.0314 87.1601 19.9834 87.0321 19.9834H82.8561C82.5921 19.9834 82.3481 19.9194 82.1241 19.7914C81.9081 19.6554 81.7321 19.4794 81.5961 19.2634C81.4681 19.0394 81.4041 18.7954 81.4041 18.5314V17.4634C81.4041 17.1994 81.4681 16.9594 81.5961 16.7434C81.7321 16.5194 81.9081 16.3434 82.1241 16.2154C82.3481 16.0794 82.5921 16.0114 82.8561 16.0114H87.0321C87.3041 16.0114 87.5481 16.0794 87.7641 16.2154C87.9881 16.3434 88.1641 16.5194 88.2921 16.7434C88.4281 16.9594 88.4961 17.1994 88.4961 17.4634V17.5594H87.5001V17.4634C87.5001 17.3354 87.4521 17.2274 87.3561 17.1394C87.2681 17.0434 87.1601 16.9954 87.0321 16.9954H82.8561C82.7281 16.9954 82.6161 17.0434 82.5201 17.1394C82.4321 17.2274 82.3881 17.3354 82.3881 17.4634V18.5314C82.3881 18.6594 82.4321 18.7714 82.5201 18.8674C82.6161 18.9554 82.7281 18.9994 82.8561 18.9994H87.0321C87.3041 18.9994 87.5481 19.0674 87.7641 19.2034C87.9881 19.3314 88.1641 19.5074 88.2921 19.7314C88.4281 19.9474 88.4961 20.1874 88.4961 20.4514V21.5194C88.4961 21.7834 88.4281 22.0274 88.2921 22.2514C88.1641 22.4674 87.9881 22.6434 87.7641 22.7794C87.5481 22.9074 87.3041 22.9714 87.0321 22.9714H82.8561Z" fill="#4C6EF5"/>
<path d="M1.276 25.1714V9.33145H15.73V11.1134H3.058V16.3494H13.244V18.1534H3.058V23.3894H15.73V25.1714H1.276ZM20.6058 25.1714C20.1218 25.1714 19.6744 25.0541 19.2638 24.8194C18.8678 24.5848 18.5524 24.2694 18.3178 23.8734C18.0831 23.4628 17.9658 23.0154 17.9658 22.5314V21.9154H19.7477V22.5314C19.7477 22.7661 19.8284 22.9714 19.9898 23.1474C20.1658 23.3088 20.3711 23.3894 20.6058 23.3894H31.1658C31.4004 23.3894 31.5984 23.3088 31.7598 23.1474C31.9358 22.9714 32.0238 22.7661 32.0238 22.5314V18.9894C32.0238 18.7548 31.9358 18.5568 31.7598 18.3954C31.5984 18.2341 31.4004 18.1534 31.1658 18.1534H20.6058C20.1218 18.1534 19.6744 18.0361 19.2638 17.8014C18.8678 17.5521 18.5524 17.2294 18.3178 16.8334C18.0831 16.4374 17.9658 15.9974 17.9658 15.5134V11.9714C17.9658 11.4874 18.0831 11.0474 18.3178 10.6514C18.5524 10.2408 18.8678 9.91811 19.2638 9.68345C19.6744 9.44878 20.1218 9.33145 20.6058 9.33145H31.1658C31.6498 9.33145 32.0898 9.44878 32.4858 9.68345C32.8964 9.91811 33.2191 10.2408 33.4538 10.6514C33.6884 11.0474 33.8058 11.4874 33.8058 11.9714V12.5874H32.0238V11.9714C32.0238 11.7368 31.9358 11.5388 31.7598 11.3774C31.5984 11.2014 31.4004 11.1134 31.1658 11.1134H20.6058C20.3711 11.1134 20.1658 11.2014 19.9898 11.3774C19.8284 11.5388 19.7477 11.7368 19.7477 11.9714V15.5134C19.7477 15.7481 19.8284 15.9461 19.9898 16.1074C20.1658 16.2688 20.3711 16.3494 20.6058 16.3494H31.1658C31.6498 16.3494 32.0898 16.4741 32.4858 16.7234C32.8964 16.9581 33.2191 17.2734 33.4538 17.6694C33.6884 18.0654 33.8058 18.5054 33.8058 18.9894V22.5314C33.8058 23.0154 33.6884 23.4628 33.4538 23.8734C33.2191 24.2694 32.8964 24.5848 32.4858 24.8194C32.0898 25.0541 31.6498 25.1714 31.1658 25.1714H20.6058Z" fill="#495057"/>
</svg>
